<svg xmlns="http://www.w3.org/2000/svg" viewBox="0 0 328.22 149.83"><defs><style>.cls-1{fill:#eaebe2;}</style></defs><g id="Layer_2" data-name="Layer 2"><path class="cls-1" d="M861.46,336.84c-41.23,0-74.66,32.44-74.66,72.44s33.43,72.44,74.66,72.44,74.66-32.43,74.66-72.44S902.69,336.84,861.46,336.84Zm0,129.27c-32.35,0-58.57-25.44-58.57-56.83s26.22-56.83,58.57-56.83S920,377.9,920,409.28,893.81,466.11,861.46,466.11Z" transform="translate(-697.35 -334.37)"/><ellipse class="cls-1" cx="164.11" cy="74.92" rx="40.21" ry="39.01"/><path class="cls-1" d="M802.89,484.2c-.9-.32-32.66-5.06-60.41-25.57-29.52-21.82-43.61-47.36-44.19-48.44l-.94-1.71.94-1.72c.58-1.08,14.67-26.62,44.19-48.44a131.49,131.49,0,0,1,55.92-23.95,164,164,0,0,0-39.93,29.74c-20.53,21.15-31.09,38.37-34.72,44.36,3.64,6,13.13,24,34.72,44C784.72,476.77,802.89,484.2,802.89,484.2Z" transform="translate(-697.35 -334.37)"/><path class="cls-1" d="M920,484.2c.9-.32,32.66-5.06,60.41-25.57,29.52-21.82,43.61-47.36,44.19-48.44l.94-1.71-.94-1.72c-.58-1.08-14.67-26.62-44.19-48.44a131.49,131.49,0,0,0-55.92-23.95,164,164,0,0,1,39.93,29.74c20.53,21.15,31.09,38.37,34.72,44.36-3.64,6-13.13,24-34.72,44C938.2,476.77,920,484.2,920,484.2Z" transform="translate(-697.35 -334.37)"/></g></svg>